<mxfile host="app.diagrams.net" agent="Mozilla/5.0 (Macintosh; Intel Mac OS X 10_15_7) AppleWebKit/537.36 (KHTML, like Gecko) Chrome/131.0.0.0 Safari/537.36 OPR/116.0.0.0" version="26.0.16">
  <diagram name="Сторінка-1" id="jrV9beEKb0NytZCr6bjh">
    <mxGraphModel dx="2273" dy="890" grid="1" gridSize="10" guides="1" tooltips="1" connect="1" arrows="1" fold="1" page="1" pageScale="1" pageWidth="827" pageHeight="1169" math="0" shadow="0">
      <root>
        <mxCell id="0" />
        <mxCell id="1" parent="0" />
        <mxCell id="e8lJ5DqBwAY-DkGDRdsz-30" value="Order" style="shape=table;startSize=30;container=1;collapsible=1;childLayout=tableLayout;fixedRows=1;rowLines=0;fontStyle=1;align=center;resizeLast=1;html=1;rounded=0;shadow=0;swimlaneLine=1;" vertex="1" parent="1">
          <mxGeometry x="50" y="60" width="210" height="180" as="geometry" />
        </mxCell>
        <mxCell id="e8lJ5DqBwAY-DkGDRdsz-31" value="" style="shape=tableRow;horizontal=0;startSize=0;swimlaneHead=0;swimlaneBody=0;fillColor=none;collapsible=0;dropTarget=0;points=[[0,0.5],[1,0.5]];portConstraint=eastwest;top=0;left=0;right=0;bottom=1;" vertex="1" parent="e8lJ5DqBwAY-DkGDRdsz-30">
          <mxGeometry y="30" width="210" height="30" as="geometry" />
        </mxCell>
        <mxCell id="e8lJ5DqBwAY-DkGDRdsz-32" value="PK" style="shape=partialRectangle;connectable=0;fillColor=none;top=0;left=0;bottom=0;right=0;fontStyle=1;overflow=hidden;whiteSpace=wrap;html=1;" vertex="1" parent="e8lJ5DqBwAY-DkGDRdsz-31">
          <mxGeometry width="30" height="30" as="geometry">
            <mxRectangle width="30" height="30" as="alternateBounds" />
          </mxGeometry>
        </mxCell>
        <mxCell id="e8lJ5DqBwAY-DkGDRdsz-33" value="UniqueID / UUID?" style="shape=partialRectangle;connectable=0;fillColor=none;top=0;left=0;bottom=0;right=0;align=left;spacingLeft=6;fontStyle=5;overflow=hidden;whiteSpace=wrap;html=1;" vertex="1" parent="e8lJ5DqBwAY-DkGDRdsz-31">
          <mxGeometry x="30" width="180" height="30" as="geometry">
            <mxRectangle width="180" height="30" as="alternateBounds" />
          </mxGeometry>
        </mxCell>
        <mxCell id="e8lJ5DqBwAY-DkGDRdsz-34" value="" style="shape=tableRow;horizontal=0;startSize=0;swimlaneHead=0;swimlaneBody=0;fillColor=none;collapsible=0;dropTarget=0;points=[[0,0.5],[1,0.5]];portConstraint=eastwest;top=0;left=0;right=0;bottom=0;" vertex="1" parent="e8lJ5DqBwAY-DkGDRdsz-30">
          <mxGeometry y="60" width="210" height="30" as="geometry" />
        </mxCell>
        <mxCell id="e8lJ5DqBwAY-DkGDRdsz-35" value="" style="shape=partialRectangle;connectable=0;fillColor=none;top=0;left=0;bottom=0;right=0;editable=1;overflow=hidden;whiteSpace=wrap;html=1;" vertex="1" parent="e8lJ5DqBwAY-DkGDRdsz-34">
          <mxGeometry width="30" height="30" as="geometry">
            <mxRectangle width="30" height="30" as="alternateBounds" />
          </mxGeometry>
        </mxCell>
        <mxCell id="e8lJ5DqBwAY-DkGDRdsz-36" value="ClientNum : Int" style="shape=partialRectangle;connectable=0;fillColor=none;top=0;left=0;bottom=0;right=0;align=left;spacingLeft=6;overflow=hidden;whiteSpace=wrap;html=1;" vertex="1" parent="e8lJ5DqBwAY-DkGDRdsz-34">
          <mxGeometry x="30" width="180" height="30" as="geometry">
            <mxRectangle width="180" height="30" as="alternateBounds" />
          </mxGeometry>
        </mxCell>
        <mxCell id="e8lJ5DqBwAY-DkGDRdsz-37" value="" style="shape=tableRow;horizontal=0;startSize=0;swimlaneHead=0;swimlaneBody=0;fillColor=none;collapsible=0;dropTarget=0;points=[[0,0.5],[1,0.5]];portConstraint=eastwest;top=0;left=0;right=0;bottom=0;" vertex="1" parent="e8lJ5DqBwAY-DkGDRdsz-30">
          <mxGeometry y="90" width="210" height="30" as="geometry" />
        </mxCell>
        <mxCell id="e8lJ5DqBwAY-DkGDRdsz-38" value="" style="shape=partialRectangle;connectable=0;fillColor=none;top=0;left=0;bottom=0;right=0;editable=1;overflow=hidden;whiteSpace=wrap;html=1;" vertex="1" parent="e8lJ5DqBwAY-DkGDRdsz-37">
          <mxGeometry width="30" height="30" as="geometry">
            <mxRectangle width="30" height="30" as="alternateBounds" />
          </mxGeometry>
        </mxCell>
        <mxCell id="e8lJ5DqBwAY-DkGDRdsz-39" value="OrderNum : String" style="shape=partialRectangle;connectable=0;fillColor=none;top=0;left=0;bottom=0;right=0;align=left;spacingLeft=6;overflow=hidden;whiteSpace=wrap;html=1;" vertex="1" parent="e8lJ5DqBwAY-DkGDRdsz-37">
          <mxGeometry x="30" width="180" height="30" as="geometry">
            <mxRectangle width="180" height="30" as="alternateBounds" />
          </mxGeometry>
        </mxCell>
        <mxCell id="e8lJ5DqBwAY-DkGDRdsz-77" value="" style="shape=tableRow;horizontal=0;startSize=0;swimlaneHead=0;swimlaneBody=0;fillColor=none;collapsible=0;dropTarget=0;points=[[0,0.5],[1,0.5]];portConstraint=eastwest;top=0;left=0;right=0;bottom=0;" vertex="1" parent="e8lJ5DqBwAY-DkGDRdsz-30">
          <mxGeometry y="120" width="210" height="30" as="geometry" />
        </mxCell>
        <mxCell id="e8lJ5DqBwAY-DkGDRdsz-78" value="" style="shape=partialRectangle;connectable=0;fillColor=none;top=0;left=0;bottom=0;right=0;editable=1;overflow=hidden;whiteSpace=wrap;html=1;" vertex="1" parent="e8lJ5DqBwAY-DkGDRdsz-77">
          <mxGeometry width="30" height="30" as="geometry">
            <mxRectangle width="30" height="30" as="alternateBounds" />
          </mxGeometry>
        </mxCell>
        <mxCell id="e8lJ5DqBwAY-DkGDRdsz-79" value="OrderNumCreatio : String" style="shape=partialRectangle;connectable=0;fillColor=none;top=0;left=0;bottom=0;right=0;align=left;spacingLeft=6;overflow=hidden;whiteSpace=wrap;html=1;" vertex="1" parent="e8lJ5DqBwAY-DkGDRdsz-77">
          <mxGeometry x="30" width="180" height="30" as="geometry">
            <mxRectangle width="180" height="30" as="alternateBounds" />
          </mxGeometry>
        </mxCell>
        <mxCell id="e8lJ5DqBwAY-DkGDRdsz-40" value="" style="shape=tableRow;horizontal=0;startSize=0;swimlaneHead=0;swimlaneBody=0;fillColor=none;collapsible=0;dropTarget=0;points=[[0,0.5],[1,0.5]];portConstraint=eastwest;top=0;left=0;right=0;bottom=0;" vertex="1" parent="e8lJ5DqBwAY-DkGDRdsz-30">
          <mxGeometry y="150" width="210" height="30" as="geometry" />
        </mxCell>
        <mxCell id="e8lJ5DqBwAY-DkGDRdsz-41" value="" style="shape=partialRectangle;connectable=0;fillColor=none;top=0;left=0;bottom=0;right=0;editable=1;overflow=hidden;whiteSpace=wrap;html=1;" vertex="1" parent="e8lJ5DqBwAY-DkGDRdsz-40">
          <mxGeometry width="30" height="30" as="geometry">
            <mxRectangle width="30" height="30" as="alternateBounds" />
          </mxGeometry>
        </mxCell>
        <mxCell id="e8lJ5DqBwAY-DkGDRdsz-42" value="serviceList: List&amp;lt;OrderService&amp;gt;" style="shape=partialRectangle;connectable=0;fillColor=none;top=0;left=0;bottom=0;right=0;align=left;spacingLeft=6;overflow=hidden;whiteSpace=wrap;html=1;" vertex="1" parent="e8lJ5DqBwAY-DkGDRdsz-40">
          <mxGeometry x="30" width="180" height="30" as="geometry">
            <mxRectangle width="180" height="30" as="alternateBounds" />
          </mxGeometry>
        </mxCell>
        <mxCell id="e8lJ5DqBwAY-DkGDRdsz-44" style="edgeStyle=orthogonalEdgeStyle;rounded=0;orthogonalLoop=1;jettySize=auto;html=1;exitX=1;exitY=0.5;exitDx=0;exitDy=0;" edge="1" parent="e8lJ5DqBwAY-DkGDRdsz-30" source="e8lJ5DqBwAY-DkGDRdsz-40" target="e8lJ5DqBwAY-DkGDRdsz-40">
          <mxGeometry relative="1" as="geometry" />
        </mxCell>
        <mxCell id="e8lJ5DqBwAY-DkGDRdsz-52" value="OrderService" style="shape=table;startSize=20;container=1;collapsible=1;childLayout=tableLayout;fixedRows=1;rowLines=0;fontStyle=1;align=center;resizeLast=1;html=1;rounded=0;shadow=0;swimlaneLine=1;" vertex="1" parent="1">
          <mxGeometry x="300" y="60" width="130" height="260" as="geometry" />
        </mxCell>
        <mxCell id="e8lJ5DqBwAY-DkGDRdsz-53" value="" style="shape=tableRow;horizontal=0;startSize=0;swimlaneHead=0;swimlaneBody=0;fillColor=none;collapsible=0;dropTarget=0;points=[[0,0.5],[1,0.5]];portConstraint=eastwest;top=0;left=0;right=0;bottom=1;" vertex="1" parent="e8lJ5DqBwAY-DkGDRdsz-52">
          <mxGeometry y="20" width="130" height="30" as="geometry" />
        </mxCell>
        <mxCell id="e8lJ5DqBwAY-DkGDRdsz-54" value="PK" style="shape=partialRectangle;connectable=0;fillColor=none;top=0;left=0;bottom=0;right=0;fontStyle=1;overflow=hidden;whiteSpace=wrap;html=1;" vertex="1" parent="e8lJ5DqBwAY-DkGDRdsz-53">
          <mxGeometry width="30" height="30" as="geometry">
            <mxRectangle width="30" height="30" as="alternateBounds" />
          </mxGeometry>
        </mxCell>
        <mxCell id="e8lJ5DqBwAY-DkGDRdsz-55" value="ID" style="shape=partialRectangle;connectable=0;fillColor=none;top=0;left=0;bottom=0;right=0;align=left;spacingLeft=6;fontStyle=5;overflow=hidden;whiteSpace=wrap;html=1;" vertex="1" parent="e8lJ5DqBwAY-DkGDRdsz-53">
          <mxGeometry x="30" width="100" height="30" as="geometry">
            <mxRectangle width="100" height="30" as="alternateBounds" />
          </mxGeometry>
        </mxCell>
        <mxCell id="e8lJ5DqBwAY-DkGDRdsz-80" value="" style="shape=tableRow;horizontal=0;startSize=0;swimlaneHead=0;swimlaneBody=0;fillColor=none;collapsible=0;dropTarget=0;points=[[0,0.5],[1,0.5]];portConstraint=eastwest;top=0;left=0;right=0;bottom=0;" vertex="1" parent="e8lJ5DqBwAY-DkGDRdsz-52">
          <mxGeometry y="50" width="130" height="30" as="geometry" />
        </mxCell>
        <mxCell id="e8lJ5DqBwAY-DkGDRdsz-81" value="" style="shape=partialRectangle;connectable=0;fillColor=none;top=0;left=0;bottom=0;right=0;editable=1;overflow=hidden;whiteSpace=wrap;html=1;" vertex="1" parent="e8lJ5DqBwAY-DkGDRdsz-80">
          <mxGeometry width="30" height="30" as="geometry">
            <mxRectangle width="30" height="30" as="alternateBounds" />
          </mxGeometry>
        </mxCell>
        <mxCell id="e8lJ5DqBwAY-DkGDRdsz-82" value="OrderId : Int?" style="shape=partialRectangle;connectable=0;fillColor=none;top=0;left=0;bottom=0;right=0;align=left;spacingLeft=6;overflow=hidden;whiteSpace=wrap;html=1;" vertex="1" parent="e8lJ5DqBwAY-DkGDRdsz-80">
          <mxGeometry x="30" width="100" height="30" as="geometry">
            <mxRectangle width="100" height="30" as="alternateBounds" />
          </mxGeometry>
        </mxCell>
        <mxCell id="e8lJ5DqBwAY-DkGDRdsz-56" value="" style="shape=tableRow;horizontal=0;startSize=0;swimlaneHead=0;swimlaneBody=0;fillColor=none;collapsible=0;dropTarget=0;points=[[0,0.5],[1,0.5]];portConstraint=eastwest;top=0;left=0;right=0;bottom=0;" vertex="1" parent="e8lJ5DqBwAY-DkGDRdsz-52">
          <mxGeometry y="80" width="130" height="30" as="geometry" />
        </mxCell>
        <mxCell id="e8lJ5DqBwAY-DkGDRdsz-57" value="" style="shape=partialRectangle;connectable=0;fillColor=none;top=0;left=0;bottom=0;right=0;editable=1;overflow=hidden;whiteSpace=wrap;html=1;" vertex="1" parent="e8lJ5DqBwAY-DkGDRdsz-56">
          <mxGeometry width="30" height="30" as="geometry">
            <mxRectangle width="30" height="30" as="alternateBounds" />
          </mxGeometry>
        </mxCell>
        <mxCell id="e8lJ5DqBwAY-DkGDRdsz-58" value="Name" style="shape=partialRectangle;connectable=0;fillColor=none;top=0;left=0;bottom=0;right=0;align=left;spacingLeft=6;overflow=hidden;whiteSpace=wrap;html=1;" vertex="1" parent="e8lJ5DqBwAY-DkGDRdsz-56">
          <mxGeometry x="30" width="100" height="30" as="geometry">
            <mxRectangle width="100" height="30" as="alternateBounds" />
          </mxGeometry>
        </mxCell>
        <mxCell id="e8lJ5DqBwAY-DkGDRdsz-59" value="" style="shape=tableRow;horizontal=0;startSize=0;swimlaneHead=0;swimlaneBody=0;fillColor=none;collapsible=0;dropTarget=0;points=[[0,0.5],[1,0.5]];portConstraint=eastwest;top=0;left=0;right=0;bottom=0;" vertex="1" parent="e8lJ5DqBwAY-DkGDRdsz-52">
          <mxGeometry y="110" width="130" height="30" as="geometry" />
        </mxCell>
        <mxCell id="e8lJ5DqBwAY-DkGDRdsz-60" value="" style="shape=partialRectangle;connectable=0;fillColor=none;top=0;left=0;bottom=0;right=0;editable=1;overflow=hidden;whiteSpace=wrap;html=1;" vertex="1" parent="e8lJ5DqBwAY-DkGDRdsz-59">
          <mxGeometry width="30" height="30" as="geometry">
            <mxRectangle width="30" height="30" as="alternateBounds" />
          </mxGeometry>
        </mxCell>
        <mxCell id="e8lJ5DqBwAY-DkGDRdsz-61" value="Price" style="shape=partialRectangle;connectable=0;fillColor=none;top=0;left=0;bottom=0;right=0;align=left;spacingLeft=6;overflow=hidden;whiteSpace=wrap;html=1;" vertex="1" parent="e8lJ5DqBwAY-DkGDRdsz-59">
          <mxGeometry x="30" width="100" height="30" as="geometry">
            <mxRectangle width="100" height="30" as="alternateBounds" />
          </mxGeometry>
        </mxCell>
        <mxCell id="e8lJ5DqBwAY-DkGDRdsz-62" value="" style="shape=tableRow;horizontal=0;startSize=0;swimlaneHead=0;swimlaneBody=0;fillColor=none;collapsible=0;dropTarget=0;points=[[0,0.5],[1,0.5]];portConstraint=eastwest;top=0;left=0;right=0;bottom=0;" vertex="1" parent="e8lJ5DqBwAY-DkGDRdsz-52">
          <mxGeometry y="140" width="130" height="30" as="geometry" />
        </mxCell>
        <mxCell id="e8lJ5DqBwAY-DkGDRdsz-63" value="" style="shape=partialRectangle;connectable=0;fillColor=none;top=0;left=0;bottom=0;right=0;editable=1;overflow=hidden;whiteSpace=wrap;html=1;" vertex="1" parent="e8lJ5DqBwAY-DkGDRdsz-62">
          <mxGeometry width="30" height="30" as="geometry">
            <mxRectangle width="30" height="30" as="alternateBounds" />
          </mxGeometry>
        </mxCell>
        <mxCell id="e8lJ5DqBwAY-DkGDRdsz-64" value="Properties:&amp;nbsp;" style="shape=partialRectangle;connectable=0;fillColor=none;top=0;left=0;bottom=0;right=0;align=left;spacingLeft=6;overflow=hidden;whiteSpace=wrap;html=1;" vertex="1" parent="e8lJ5DqBwAY-DkGDRdsz-62">
          <mxGeometry x="30" width="100" height="30" as="geometry">
            <mxRectangle width="100" height="30" as="alternateBounds" />
          </mxGeometry>
        </mxCell>
        <mxCell id="e8lJ5DqBwAY-DkGDRdsz-71" value="" style="shape=tableRow;horizontal=0;startSize=0;swimlaneHead=0;swimlaneBody=0;fillColor=none;collapsible=0;dropTarget=0;points=[[0,0.5],[1,0.5]];portConstraint=eastwest;top=0;left=0;right=0;bottom=0;" vertex="1" parent="e8lJ5DqBwAY-DkGDRdsz-52">
          <mxGeometry y="170" width="130" height="60" as="geometry" />
        </mxCell>
        <mxCell id="e8lJ5DqBwAY-DkGDRdsz-72" value="" style="shape=partialRectangle;connectable=0;fillColor=none;top=0;left=0;bottom=0;right=0;editable=1;overflow=hidden;whiteSpace=wrap;html=1;" vertex="1" parent="e8lJ5DqBwAY-DkGDRdsz-71">
          <mxGeometry width="30" height="60" as="geometry">
            <mxRectangle width="30" height="60" as="alternateBounds" />
          </mxGeometry>
        </mxCell>
        <mxCell id="e8lJ5DqBwAY-DkGDRdsz-73" value="" style="shape=partialRectangle;connectable=0;fillColor=none;top=0;left=0;bottom=0;right=0;align=left;spacingLeft=6;overflow=hidden;whiteSpace=wrap;html=1;" vertex="1" parent="e8lJ5DqBwAY-DkGDRdsz-71">
          <mxGeometry x="30" width="100" height="60" as="geometry">
            <mxRectangle width="100" height="60" as="alternateBounds" />
          </mxGeometry>
        </mxCell>
        <mxCell id="e8lJ5DqBwAY-DkGDRdsz-74" value="" style="shape=tableRow;horizontal=0;startSize=0;swimlaneHead=0;swimlaneBody=0;fillColor=none;collapsible=0;dropTarget=0;points=[[0,0.5],[1,0.5]];portConstraint=eastwest;top=0;left=0;right=0;bottom=0;" vertex="1" parent="e8lJ5DqBwAY-DkGDRdsz-52">
          <mxGeometry y="230" width="130" height="30" as="geometry" />
        </mxCell>
        <mxCell id="e8lJ5DqBwAY-DkGDRdsz-75" value="" style="shape=partialRectangle;connectable=0;fillColor=none;top=0;left=0;bottom=0;right=0;editable=1;overflow=hidden;whiteSpace=wrap;html=1;" vertex="1" parent="e8lJ5DqBwAY-DkGDRdsz-74">
          <mxGeometry width="30" height="30" as="geometry">
            <mxRectangle width="30" height="30" as="alternateBounds" />
          </mxGeometry>
        </mxCell>
        <mxCell id="e8lJ5DqBwAY-DkGDRdsz-76" value="" style="shape=partialRectangle;connectable=0;fillColor=none;top=0;left=0;bottom=0;right=0;align=left;spacingLeft=6;overflow=hidden;whiteSpace=wrap;html=1;" vertex="1" parent="e8lJ5DqBwAY-DkGDRdsz-74">
          <mxGeometry x="30" width="100" height="30" as="geometry">
            <mxRectangle width="100" height="30" as="alternateBounds" />
          </mxGeometry>
        </mxCell>
        <mxCell id="e8lJ5DqBwAY-DkGDRdsz-65" style="edgeStyle=orthogonalEdgeStyle;rounded=0;orthogonalLoop=1;jettySize=auto;html=1;exitX=1;exitY=0.5;exitDx=0;exitDy=0;" edge="1" parent="e8lJ5DqBwAY-DkGDRdsz-52" source="e8lJ5DqBwAY-DkGDRdsz-62" target="e8lJ5DqBwAY-DkGDRdsz-62">
          <mxGeometry relative="1" as="geometry" />
        </mxCell>
        <mxCell id="e8lJ5DqBwAY-DkGDRdsz-83" value="" style="edgeStyle=entityRelationEdgeStyle;fontSize=12;html=1;endArrow=ERmandOne;startArrow=none;rounded=0;fontFamily=Helvetica;fontColor=default;fontStyle=1;entryX=1;entryY=0.5;entryDx=0;entryDy=0;exitX=-0.009;exitY=0.84;exitDx=0;exitDy=0;exitPerimeter=0;startFill=0;" edge="1" parent="1" source="e8lJ5DqBwAY-DkGDRdsz-62" target="e8lJ5DqBwAY-DkGDRdsz-40">
          <mxGeometry width="100" height="100" relative="1" as="geometry">
            <mxPoint x="-80" y="130" as="sourcePoint" />
            <mxPoint x="70" y="220" as="targetPoint" />
            <Array as="points">
              <mxPoint x="30" y="240" />
              <mxPoint x="-60" y="230" />
            </Array>
          </mxGeometry>
        </mxCell>
        <mxCell id="e8lJ5DqBwAY-DkGDRdsz-86" value="Payment" style="swimlane;fontStyle=1;align=center;verticalAlign=top;childLayout=stackLayout;horizontal=1;startSize=26;horizontalStack=0;resizeParent=1;resizeParentMax=0;resizeLast=0;collapsible=1;marginBottom=0;whiteSpace=wrap;html=1;rounded=0;shadow=0;strokeColor=default;fontFamily=Helvetica;fontSize=12;fontColor=default;fillColor=default;" vertex="1" parent="1">
          <mxGeometry x="1230" y="70" width="140" height="190" as="geometry" />
        </mxCell>
        <mxCell id="e8lJ5DqBwAY-DkGDRdsz-87" value="+&amp;nbsp;" style="text;strokeColor=none;fillColor=none;align=left;verticalAlign=top;spacingLeft=4;spacingRight=4;overflow=hidden;rotatable=0;points=[[0,0.5],[1,0.5]];portConstraint=eastwest;whiteSpace=wrap;html=1;fontFamily=Helvetica;fontSize=12;fontColor=default;fontStyle=1;" vertex="1" parent="e8lJ5DqBwAY-DkGDRdsz-86">
          <mxGeometry y="26" width="140" height="26" as="geometry" />
        </mxCell>
        <mxCell id="e8lJ5DqBwAY-DkGDRdsz-93" value="+ field: type" style="text;strokeColor=none;fillColor=none;align=left;verticalAlign=top;spacingLeft=4;spacingRight=4;overflow=hidden;rotatable=0;points=[[0,0.5],[1,0.5]];portConstraint=eastwest;whiteSpace=wrap;html=1;fontFamily=Helvetica;fontSize=12;fontColor=default;fontStyle=1;" vertex="1" parent="e8lJ5DqBwAY-DkGDRdsz-86">
          <mxGeometry y="52" width="140" height="26" as="geometry" />
        </mxCell>
        <mxCell id="e8lJ5DqBwAY-DkGDRdsz-94" value="+ field: type" style="text;strokeColor=none;fillColor=none;align=left;verticalAlign=top;spacingLeft=4;spacingRight=4;overflow=hidden;rotatable=0;points=[[0,0.5],[1,0.5]];portConstraint=eastwest;whiteSpace=wrap;html=1;fontFamily=Helvetica;fontSize=12;fontColor=default;fontStyle=1;" vertex="1" parent="e8lJ5DqBwAY-DkGDRdsz-86">
          <mxGeometry y="78" width="140" height="26" as="geometry" />
        </mxCell>
        <mxCell id="e8lJ5DqBwAY-DkGDRdsz-88" value="" style="line;strokeWidth=1;fillColor=none;align=left;verticalAlign=middle;spacingTop=-1;spacingLeft=3;spacingRight=3;rotatable=0;labelPosition=right;points=[];portConstraint=eastwest;strokeColor=inherit;rounded=0;shadow=0;fontFamily=Helvetica;fontSize=12;fontColor=default;fontStyle=1;" vertex="1" parent="e8lJ5DqBwAY-DkGDRdsz-86">
          <mxGeometry y="104" width="140" height="8" as="geometry" />
        </mxCell>
        <mxCell id="e8lJ5DqBwAY-DkGDRdsz-89" value="+ method(type): type" style="text;strokeColor=none;fillColor=none;align=left;verticalAlign=top;spacingLeft=4;spacingRight=4;overflow=hidden;rotatable=0;points=[[0,0.5],[1,0.5]];portConstraint=eastwest;whiteSpace=wrap;html=1;fontFamily=Helvetica;fontSize=12;fontColor=default;fontStyle=1;" vertex="1" parent="e8lJ5DqBwAY-DkGDRdsz-86">
          <mxGeometry y="112" width="140" height="26" as="geometry" />
        </mxCell>
        <mxCell id="e8lJ5DqBwAY-DkGDRdsz-91" value="+ method(type): type" style="text;strokeColor=none;fillColor=none;align=left;verticalAlign=top;spacingLeft=4;spacingRight=4;overflow=hidden;rotatable=0;points=[[0,0.5],[1,0.5]];portConstraint=eastwest;whiteSpace=wrap;html=1;fontFamily=Helvetica;fontSize=12;fontColor=default;fontStyle=1;" vertex="1" parent="e8lJ5DqBwAY-DkGDRdsz-86">
          <mxGeometry y="138" width="140" height="26" as="geometry" />
        </mxCell>
        <mxCell id="e8lJ5DqBwAY-DkGDRdsz-92" value="+ method(type): type" style="text;strokeColor=none;fillColor=none;align=left;verticalAlign=top;spacingLeft=4;spacingRight=4;overflow=hidden;rotatable=0;points=[[0,0.5],[1,0.5]];portConstraint=eastwest;whiteSpace=wrap;html=1;fontFamily=Helvetica;fontSize=12;fontColor=default;fontStyle=1;" vertex="1" parent="e8lJ5DqBwAY-DkGDRdsz-86">
          <mxGeometry y="164" width="140" height="26" as="geometry" />
        </mxCell>
        <mxCell id="e8lJ5DqBwAY-DkGDRdsz-118" value="" style="group" vertex="1" connectable="0" parent="1">
          <mxGeometry x="20" y="585" width="820" height="525" as="geometry" />
        </mxCell>
        <mxCell id="e8lJ5DqBwAY-DkGDRdsz-107" value="" style="rounded=1;html=1;shadow=0;strokeColor=default;align=center;verticalAlign=middle;fontFamily=Helvetica;fontSize=12;fontColor=default;fontStyle=1;fillColor=none;whiteSpace=wrap;connectable=1;container=0;fixDash=1;resizeWidth=1;resizeHeight=1;autosize=0;aspect=fixed;" vertex="1" parent="e8lJ5DqBwAY-DkGDRdsz-118">
          <mxGeometry x="10" width="820" height="524.9999999999999" as="geometry" />
        </mxCell>
        <mxCell id="e8lJ5DqBwAY-DkGDRdsz-97" value="Customer" style="shape=umlActor;verticalLabelPosition=bottom;verticalAlign=top;html=1;rounded=0;shadow=0;strokeColor=default;align=center;fontFamily=Helvetica;fontSize=12;fontColor=default;fontStyle=1;fillColor=default;" vertex="1" parent="e8lJ5DqBwAY-DkGDRdsz-118">
          <mxGeometry x="28.7719298245614" y="45.258620689655174" width="21.57894736842105" height="54.310344827586206" as="geometry" />
        </mxCell>
        <mxCell id="e8lJ5DqBwAY-DkGDRdsz-103" value="User Screen" style="endArrow=none;dashed=1;html=1;rounded=0;fontFamily=Helvetica;fontSize=10;fontColor=default;fontStyle=1;startFill=0;entryX=0.5;entryY=0;entryDx=0;entryDy=0;" edge="1" parent="e8lJ5DqBwAY-DkGDRdsz-118" target="e8lJ5DqBwAY-DkGDRdsz-102">
          <mxGeometry x="0.011" width="160" relative="1" as="geometry">
            <mxPoint x="39.56140350877193" y="126.72413793103446" as="sourcePoint" />
            <mxPoint x="39.56140350877193" y="153.87931034482756" as="targetPoint" />
            <mxPoint as="offset" />
          </mxGeometry>
        </mxCell>
        <mxCell id="e8lJ5DqBwAY-DkGDRdsz-108" value="" style="endArrow=classic;html=1;rounded=0;fontFamily=Helvetica;fontSize=12;fontColor=default;fontStyle=1;" edge="1" parent="e8lJ5DqBwAY-DkGDRdsz-118">
          <mxGeometry width="50" height="50" relative="1" as="geometry">
            <mxPoint x="640.1754385964913" y="54.075" as="sourcePoint" />
            <mxPoint x="712.1052631578948" y="54.075" as="targetPoint" />
          </mxGeometry>
        </mxCell>
        <mxCell id="e8lJ5DqBwAY-DkGDRdsz-109" value="Action" style="text;html=1;align=center;verticalAlign=middle;whiteSpace=wrap;rounded=0;fontFamily=Helvetica;fontSize=12;fontColor=default;fontStyle=1;" vertex="1" parent="e8lJ5DqBwAY-DkGDRdsz-118">
          <mxGeometry x="712.1052631578948" y="36.206896551724135" width="93.50877192982456" height="36.206896551724135" as="geometry" />
        </mxCell>
        <mxCell id="e8lJ5DqBwAY-DkGDRdsz-110" value="Scope" style="endArrow=none;endSize=12;dashed=1;html=1;rounded=0;fontFamily=Helvetica;fontSize=12;fontColor=default;fontStyle=1;startFill=0;" edge="1" parent="e8lJ5DqBwAY-DkGDRdsz-118">
          <mxGeometry x="0.0133" width="160" relative="1" as="geometry">
            <mxPoint x="640.1754385964913" y="81.46551724137932" as="sourcePoint" />
            <mxPoint x="712.1052631578948" y="81.21206896551726" as="targetPoint" />
            <mxPoint as="offset" />
          </mxGeometry>
        </mxCell>
        <mxCell id="e8lJ5DqBwAY-DkGDRdsz-111" value="Scope (UI, class)" style="text;html=1;align=center;verticalAlign=middle;whiteSpace=wrap;rounded=0;fontFamily=Helvetica;fontSize=12;fontColor=default;fontStyle=1;" vertex="1" parent="e8lJ5DqBwAY-DkGDRdsz-118">
          <mxGeometry x="726.4912280701753" y="67.88793103448276" width="71.9298245614035" height="27.155172413793103" as="geometry" />
        </mxCell>
        <mxCell id="e8lJ5DqBwAY-DkGDRdsz-102" value="" style="html=1;whiteSpace=wrap;rounded=0;shadow=0;strokeColor=default;align=center;verticalAlign=middle;fontFamily=Helvetica;fontSize=12;fontColor=default;fontStyle=1;fillColor=default;" vertex="1" parent="e8lJ5DqBwAY-DkGDRdsz-118">
          <mxGeometry x="35.96491228070175" y="153.87931034482756" width="7.19298245614035" height="316.8103448275862" as="geometry" />
        </mxCell>
        <mxCell id="e8lJ5DqBwAY-DkGDRdsz-115" value="" style="endArrow=classic;html=1;rounded=0;fontFamily=Helvetica;fontSize=12;fontColor=default;fontStyle=1;exitX=1.12;exitY=0.145;exitDx=0;exitDy=0;exitPerimeter=0;entryX=0.06;entryY=0.43;entryDx=0;entryDy=0;entryPerimeter=0;startFill=0;endFill=1;" edge="1" parent="e8lJ5DqBwAY-DkGDRdsz-118" source="e8lJ5DqBwAY-DkGDRdsz-102" target="e8lJ5DqBwAY-DkGDRdsz-116">
          <mxGeometry width="50" height="50" relative="1" as="geometry">
            <mxPoint x="50.35087719298245" y="199.13793103448276" as="sourcePoint" />
            <mxPoint x="86.3157894736842" y="181.0344827586207" as="targetPoint" />
          </mxGeometry>
        </mxCell>
        <mxCell id="e8lJ5DqBwAY-DkGDRdsz-121" value="" style="group" vertex="1" connectable="0" parent="e8lJ5DqBwAY-DkGDRdsz-118">
          <mxGeometry x="79.9998245614035" y="125.00413793103446" width="43.1578947368421" height="135.77586206896552" as="geometry" />
        </mxCell>
        <mxCell id="e8lJ5DqBwAY-DkGDRdsz-116" value="" style="rounded=0;whiteSpace=wrap;html=1;shadow=0;strokeColor=default;align=center;verticalAlign=middle;fontFamily=Helvetica;fontSize=12;fontColor=default;fontStyle=1;fillColor=default;container=0;" vertex="1" parent="e8lJ5DqBwAY-DkGDRdsz-121">
          <mxGeometry x="17.982456140350877" y="27.155172413793103" width="7.19298245614035" height="108.62068965517241" as="geometry" />
        </mxCell>
        <mxCell id="e8lJ5DqBwAY-DkGDRdsz-117" value="OrderList" style="text;html=1;align=center;verticalAlign=middle;whiteSpace=wrap;rounded=0;fontFamily=Helvetica;fontSize=12;fontColor=default;fontStyle=1;container=0;" vertex="1" parent="e8lJ5DqBwAY-DkGDRdsz-121">
          <mxGeometry width="43.1578947368421" height="27.155172413793103" as="geometry" />
        </mxCell>
        <mxCell id="e8lJ5DqBwAY-DkGDRdsz-119" value="OrderList" style="shape=umlFrame;whiteSpace=wrap;html=1;pointerEvents=0;rounded=0;shadow=0;strokeColor=default;align=center;verticalAlign=middle;fontFamily=Helvetica;fontSize=12;fontColor=default;fontStyle=1;fillColor=default;width=80;height=20;" vertex="1" parent="1">
          <mxGeometry x="20" y="20" width="1130" height="540" as="geometry" />
        </mxCell>
        <mxCell id="e8lJ5DqBwAY-DkGDRdsz-120" value="Payment Screen" style="shape=umlFrame;whiteSpace=wrap;html=1;pointerEvents=0;rounded=0;shadow=0;strokeColor=default;align=center;verticalAlign=middle;fontFamily=Helvetica;fontSize=12;fontColor=default;fontStyle=1;fillColor=default;width=110;height=30;" vertex="1" parent="1">
          <mxGeometry x="1200" y="20" width="780" height="540" as="geometry" />
        </mxCell>
        <mxCell id="e8lJ5DqBwAY-DkGDRdsz-122" value="Client" style="shape=umlFrame;whiteSpace=wrap;html=1;pointerEvents=0;rounded=0;shadow=0;strokeColor=default;align=center;verticalAlign=middle;fontFamily=Helvetica;fontSize=12;fontColor=default;fontStyle=1;fillColor=default;" vertex="1" parent="1">
          <mxGeometry x="-720" y="20" width="710" height="350" as="geometry" />
        </mxCell>
        <mxCell id="e8lJ5DqBwAY-DkGDRdsz-123" value="&amp;lt;&amp;lt;enum&amp;gt;&amp;gt;&lt;div&gt;CardType&lt;/div&gt;" style="swimlane;fontStyle=0;childLayout=stackLayout;horizontal=1;startSize=26;fillColor=none;horizontalStack=0;resizeParent=1;resizeParentMax=0;resizeLast=0;collapsible=1;marginBottom=0;whiteSpace=wrap;html=1;rounded=0;shadow=0;strokeColor=default;align=center;verticalAlign=middle;fontFamily=Helvetica;fontSize=12;fontColor=default;" vertex="1" parent="1">
          <mxGeometry x="-710" y="104" width="160" height="156" as="geometry" />
        </mxCell>
        <mxCell id="e8lJ5DqBwAY-DkGDRdsz-124" value="+ Holder" style="text;strokeColor=none;fillColor=none;align=left;verticalAlign=top;spacingLeft=4;spacingRight=4;overflow=hidden;rotatable=0;points=[[0,0.5],[1,0.5]];portConstraint=eastwest;whiteSpace=wrap;html=1;fontFamily=Helvetica;fontSize=12;fontColor=default;fontStyle=1;" vertex="1" parent="e8lJ5DqBwAY-DkGDRdsz-123">
          <mxGeometry y="26" width="160" height="26" as="geometry" />
        </mxCell>
        <mxCell id="e8lJ5DqBwAY-DkGDRdsz-125" value="+ ResidentCompany" style="text;strokeColor=none;fillColor=none;align=left;verticalAlign=top;spacingLeft=4;spacingRight=4;overflow=hidden;rotatable=0;points=[[0,0.5],[1,0.5]];portConstraint=eastwest;whiteSpace=wrap;html=1;fontFamily=Helvetica;fontSize=12;fontColor=default;fontStyle=1;" vertex="1" parent="e8lJ5DqBwAY-DkGDRdsz-123">
          <mxGeometry y="52" width="160" height="26" as="geometry" />
        </mxCell>
        <mxCell id="e8lJ5DqBwAY-DkGDRdsz-126" value="+ Factory" style="text;strokeColor=none;fillColor=none;align=left;verticalAlign=top;spacingLeft=4;spacingRight=4;overflow=hidden;rotatable=0;points=[[0,0.5],[1,0.5]];portConstraint=eastwest;whiteSpace=wrap;html=1;fontFamily=Helvetica;fontSize=12;fontColor=default;fontStyle=1;" vertex="1" parent="e8lJ5DqBwAY-DkGDRdsz-123">
          <mxGeometry y="78" width="160" height="26" as="geometry" />
        </mxCell>
        <mxCell id="e8lJ5DqBwAY-DkGDRdsz-220" value="+ NonResidentCompany" style="text;strokeColor=none;fillColor=none;align=left;verticalAlign=top;spacingLeft=4;spacingRight=4;overflow=hidden;rotatable=0;points=[[0,0.5],[1,0.5]];portConstraint=eastwest;whiteSpace=wrap;html=1;fontFamily=Helvetica;fontSize=12;fontColor=default;fontStyle=1;" vertex="1" parent="e8lJ5DqBwAY-DkGDRdsz-123">
          <mxGeometry y="104" width="160" height="26" as="geometry" />
        </mxCell>
        <mxCell id="e8lJ5DqBwAY-DkGDRdsz-127" value="+ Other" style="text;strokeColor=none;fillColor=none;align=left;verticalAlign=top;spacingLeft=4;spacingRight=4;overflow=hidden;rotatable=0;points=[[0,0.5],[1,0.5]];portConstraint=eastwest;whiteSpace=wrap;html=1;fontFamily=Helvetica;fontSize=12;fontColor=default;fontStyle=1;" vertex="1" parent="e8lJ5DqBwAY-DkGDRdsz-123">
          <mxGeometry y="130" width="160" height="26" as="geometry" />
        </mxCell>
        <mxCell id="e8lJ5DqBwAY-DkGDRdsz-129" value="" style="html=1;verticalAlign=bottom;endArrow=open;dashed=1;endSize=8;curved=0;rounded=0;fontFamily=Helvetica;fontSize=12;fontColor=default;fontStyle=1;exitX=1.001;exitY=0.1;exitDx=0;exitDy=0;exitPerimeter=0;entryX=0;entryY=0.5;entryDx=0;entryDy=0;" edge="1" parent="1" source="e8lJ5DqBwAY-DkGDRdsz-123" target="e8lJ5DqBwAY-DkGDRdsz-135">
          <mxGeometry x="0.001" relative="1" as="geometry">
            <mxPoint x="-480" y="240" as="sourcePoint" />
            <mxPoint x="-490" y="120" as="targetPoint" />
            <mxPoint as="offset" />
          </mxGeometry>
        </mxCell>
        <mxCell id="e8lJ5DqBwAY-DkGDRdsz-130" value="&lt;b&gt;HolderCard&lt;/b&gt;" style="swimlane;fontStyle=1;align=center;verticalAlign=top;childLayout=stackLayout;horizontal=1;startSize=26;horizontalStack=0;resizeParent=1;resizeParentMax=0;resizeLast=0;collapsible=1;marginBottom=0;whiteSpace=wrap;html=1;rounded=0;shadow=0;strokeColor=default;fontFamily=Helvetica;fontSize=12;fontColor=default;fillColor=default;" vertex="1" parent="1">
          <mxGeometry x="-510" y="30" width="160" height="130" as="geometry" />
        </mxCell>
        <mxCell id="e8lJ5DqBwAY-DkGDRdsz-131" value="&lt;p style=&quot;margin: 0px 0px 0px 4px;&quot;&gt;+ code : Int&lt;/p&gt;&lt;div&gt;&lt;br&gt;&lt;/div&gt;" style="text;strokeColor=default;fillColor=none;align=left;verticalAlign=top;spacingLeft=4;spacingRight=4;overflow=hidden;rotatable=0;points=[[0,0.5],[1,0.5]];portConstraint=eastwest;whiteSpace=wrap;html=1;fontFamily=Helvetica;fontSize=12;fontColor=default;fontStyle=1;" vertex="1" parent="e8lJ5DqBwAY-DkGDRdsz-130">
          <mxGeometry y="26" width="160" height="26" as="geometry" />
        </mxCell>
        <mxCell id="e8lJ5DqBwAY-DkGDRdsz-134" value="&lt;p style=&quot;margin: 0px 0px 0px 4px;&quot;&gt;&lt;span style=&quot;background-color: transparent; color: light-dark(rgb(0, 0, 0), rgb(255, 255, 255));&quot;&gt;+ name : String&lt;/span&gt;&lt;/p&gt;&lt;div&gt;&lt;span style=&quot;background-color: transparent; color: light-dark(rgb(0, 0, 0), rgb(255, 255, 255));&quot;&gt;&lt;br&gt;&lt;/span&gt;&lt;/div&gt;" style="text;strokeColor=none;fillColor=none;align=left;verticalAlign=top;spacingLeft=4;spacingRight=4;overflow=hidden;rotatable=0;points=[[0,0.5],[1,0.5]];portConstraint=eastwest;whiteSpace=wrap;html=1;fontFamily=Helvetica;fontSize=12;fontColor=default;fontStyle=1;" vertex="1" parent="e8lJ5DqBwAY-DkGDRdsz-130">
          <mxGeometry y="52" width="160" height="26" as="geometry" />
        </mxCell>
        <mxCell id="e8lJ5DqBwAY-DkGDRdsz-135" value="&lt;p style=&quot;margin: 0px 0px 0px 4px;&quot;&gt;+ cardType : CardType&lt;/p&gt;&lt;div&gt;&lt;br&gt;&lt;/div&gt;" style="text;strokeColor=none;fillColor=none;align=left;verticalAlign=top;spacingLeft=4;spacingRight=4;overflow=hidden;rotatable=0;points=[[0,0.5],[1,0.5]];portConstraint=eastwest;whiteSpace=wrap;html=1;fontFamily=Helvetica;fontSize=12;fontColor=default;fontStyle=1;" vertex="1" parent="e8lJ5DqBwAY-DkGDRdsz-130">
          <mxGeometry y="78" width="160" height="26" as="geometry" />
        </mxCell>
        <mxCell id="e8lJ5DqBwAY-DkGDRdsz-136" value="&lt;p style=&quot;margin: 0px 0px 0px 4px;&quot;&gt;+ managerNum : String&lt;br&gt;&lt;/p&gt;&lt;div&gt;&lt;br&gt;&lt;/div&gt;" style="text;strokeColor=none;fillColor=none;align=left;verticalAlign=top;spacingLeft=4;spacingRight=4;overflow=hidden;rotatable=0;points=[[0,0.5],[1,0.5]];portConstraint=eastwest;whiteSpace=wrap;html=1;fontFamily=Helvetica;fontSize=12;fontColor=default;fontStyle=1;" vertex="1" parent="e8lJ5DqBwAY-DkGDRdsz-130">
          <mxGeometry y="104" width="160" height="26" as="geometry" />
        </mxCell>
        <mxCell id="e8lJ5DqBwAY-DkGDRdsz-154" value="Client" style="shape=table;startSize=30;container=1;collapsible=1;childLayout=tableLayout;fixedRows=1;rowLines=0;fontStyle=1;align=center;resizeLast=1;html=1;rounded=0;shadow=0;swimlaneLine=1;flipH=1;separatorColor=#000000;horizontal=1;swimlaneBody=1;absoluteArcSize=0;resizeLastRow=0;" vertex="1" parent="1">
          <mxGeometry x="-250" y="40" width="210" height="180" as="geometry" />
        </mxCell>
        <mxCell id="e8lJ5DqBwAY-DkGDRdsz-155" value="" style="shape=tableRow;horizontal=0;startSize=0;swimlaneHead=0;swimlaneBody=0;fillColor=none;collapsible=0;dropTarget=0;points=[[0,0.5],[1,0.5]];portConstraint=eastwest;top=0;left=0;right=0;bottom=1;" vertex="1" parent="e8lJ5DqBwAY-DkGDRdsz-154">
          <mxGeometry y="30" width="210" height="30" as="geometry" />
        </mxCell>
        <mxCell id="e8lJ5DqBwAY-DkGDRdsz-156" value="PK" style="shape=partialRectangle;connectable=0;fillColor=none;top=0;left=0;bottom=0;right=0;fontStyle=1;overflow=hidden;whiteSpace=wrap;html=1;" vertex="1" parent="e8lJ5DqBwAY-DkGDRdsz-155">
          <mxGeometry width="30" height="30" as="geometry">
            <mxRectangle width="30" height="30" as="alternateBounds" />
          </mxGeometry>
        </mxCell>
        <mxCell id="e8lJ5DqBwAY-DkGDRdsz-157" value="code : Int" style="shape=partialRectangle;connectable=0;fillColor=none;top=0;left=0;bottom=0;right=0;align=left;spacingLeft=6;fontStyle=5;overflow=hidden;whiteSpace=wrap;html=1;" vertex="1" parent="e8lJ5DqBwAY-DkGDRdsz-155">
          <mxGeometry x="30" width="180" height="30" as="geometry">
            <mxRectangle width="180" height="30" as="alternateBounds" />
          </mxGeometry>
        </mxCell>
        <mxCell id="e8lJ5DqBwAY-DkGDRdsz-158" value="" style="shape=tableRow;horizontal=0;startSize=0;swimlaneHead=0;swimlaneBody=0;fillColor=none;collapsible=0;dropTarget=0;points=[[0,0.5],[1,0.5]];portConstraint=eastwest;top=0;left=0;right=0;bottom=0;" vertex="1" parent="e8lJ5DqBwAY-DkGDRdsz-154">
          <mxGeometry y="60" width="210" height="30" as="geometry" />
        </mxCell>
        <mxCell id="e8lJ5DqBwAY-DkGDRdsz-159" value="" style="shape=partialRectangle;connectable=0;fillColor=none;top=0;left=0;bottom=0;right=0;editable=1;overflow=hidden;whiteSpace=wrap;html=1;" vertex="1" parent="e8lJ5DqBwAY-DkGDRdsz-158">
          <mxGeometry width="30" height="30" as="geometry">
            <mxRectangle width="30" height="30" as="alternateBounds" />
          </mxGeometry>
        </mxCell>
        <mxCell id="e8lJ5DqBwAY-DkGDRdsz-160" value="ClientNum : Int" style="shape=partialRectangle;connectable=0;fillColor=none;top=0;left=0;bottom=0;right=0;align=left;spacingLeft=6;overflow=hidden;whiteSpace=wrap;html=1;" vertex="1" parent="e8lJ5DqBwAY-DkGDRdsz-158">
          <mxGeometry x="30" width="180" height="30" as="geometry">
            <mxRectangle width="180" height="30" as="alternateBounds" />
          </mxGeometry>
        </mxCell>
        <mxCell id="e8lJ5DqBwAY-DkGDRdsz-161" value="" style="shape=tableRow;horizontal=0;startSize=0;swimlaneHead=0;swimlaneBody=0;fillColor=none;collapsible=0;dropTarget=0;points=[[0,0.5],[1,0.5]];portConstraint=eastwest;top=0;left=0;right=0;bottom=0;" vertex="1" parent="e8lJ5DqBwAY-DkGDRdsz-154">
          <mxGeometry y="90" width="210" height="30" as="geometry" />
        </mxCell>
        <mxCell id="e8lJ5DqBwAY-DkGDRdsz-162" value="" style="shape=partialRectangle;connectable=0;fillColor=none;top=0;left=0;bottom=0;right=0;editable=1;overflow=hidden;whiteSpace=wrap;html=1;" vertex="1" parent="e8lJ5DqBwAY-DkGDRdsz-161">
          <mxGeometry width="30" height="30" as="geometry">
            <mxRectangle width="30" height="30" as="alternateBounds" />
          </mxGeometry>
        </mxCell>
        <mxCell id="e8lJ5DqBwAY-DkGDRdsz-163" value="OrderNum : String" style="shape=partialRectangle;connectable=0;fillColor=none;top=0;left=0;bottom=0;right=0;align=left;spacingLeft=6;overflow=hidden;whiteSpace=wrap;html=1;" vertex="1" parent="e8lJ5DqBwAY-DkGDRdsz-161">
          <mxGeometry x="30" width="180" height="30" as="geometry">
            <mxRectangle width="180" height="30" as="alternateBounds" />
          </mxGeometry>
        </mxCell>
        <mxCell id="e8lJ5DqBwAY-DkGDRdsz-164" value="" style="shape=tableRow;horizontal=0;startSize=0;swimlaneHead=0;swimlaneBody=0;fillColor=none;collapsible=0;dropTarget=0;points=[[0,0.5],[1,0.5]];portConstraint=eastwest;top=0;left=0;right=0;bottom=0;" vertex="1" parent="e8lJ5DqBwAY-DkGDRdsz-154">
          <mxGeometry y="120" width="210" height="30" as="geometry" />
        </mxCell>
        <mxCell id="e8lJ5DqBwAY-DkGDRdsz-165" value="" style="shape=partialRectangle;connectable=0;fillColor=none;top=0;left=0;bottom=0;right=0;editable=1;overflow=hidden;whiteSpace=wrap;html=1;" vertex="1" parent="e8lJ5DqBwAY-DkGDRdsz-164">
          <mxGeometry width="30" height="30" as="geometry">
            <mxRectangle width="30" height="30" as="alternateBounds" />
          </mxGeometry>
        </mxCell>
        <mxCell id="e8lJ5DqBwAY-DkGDRdsz-166" value="OrderNumCreatio : String" style="shape=partialRectangle;connectable=0;fillColor=none;top=0;left=0;bottom=0;right=0;align=left;spacingLeft=6;overflow=hidden;whiteSpace=wrap;html=1;" vertex="1" parent="e8lJ5DqBwAY-DkGDRdsz-164">
          <mxGeometry x="30" width="180" height="30" as="geometry">
            <mxRectangle width="180" height="30" as="alternateBounds" />
          </mxGeometry>
        </mxCell>
        <mxCell id="e8lJ5DqBwAY-DkGDRdsz-167" value="" style="shape=tableRow;horizontal=0;startSize=0;swimlaneHead=0;swimlaneBody=0;fillColor=none;collapsible=0;dropTarget=0;points=[[0,0.5],[1,0.5]];portConstraint=eastwest;top=0;left=0;right=0;bottom=0;swimlaneLine=1;gradientColor=none;dashed=1;dashPattern=8 8;strokeWidth=16;opacity=60;" vertex="1" parent="e8lJ5DqBwAY-DkGDRdsz-154">
          <mxGeometry y="150" width="210" height="30" as="geometry" />
        </mxCell>
        <mxCell id="e8lJ5DqBwAY-DkGDRdsz-168" value="" style="shape=partialRectangle;connectable=0;fillColor=none;top=0;left=0;bottom=0;right=0;editable=1;overflow=hidden;whiteSpace=wrap;html=1;strokeColor=default;shadow=0;" vertex="1" parent="e8lJ5DqBwAY-DkGDRdsz-167">
          <mxGeometry width="30" height="30" as="geometry">
            <mxRectangle width="30" height="30" as="alternateBounds" />
          </mxGeometry>
        </mxCell>
        <mxCell id="e8lJ5DqBwAY-DkGDRdsz-169" value="serviceList: List&amp;lt;OrderService&amp;gt;" style="shape=partialRectangle;connectable=0;fillColor=none;top=0;left=0;bottom=0;right=0;align=left;spacingLeft=6;overflow=hidden;whiteSpace=wrap;html=1;strokeColor=default;shadow=0;" vertex="1" parent="e8lJ5DqBwAY-DkGDRdsz-167">
          <mxGeometry x="30" width="180" height="30" as="geometry">
            <mxRectangle width="180" height="30" as="alternateBounds" />
          </mxGeometry>
        </mxCell>
        <mxCell id="e8lJ5DqBwAY-DkGDRdsz-170" style="edgeStyle=orthogonalEdgeStyle;rounded=0;orthogonalLoop=1;jettySize=auto;html=1;exitX=1;exitY=0.5;exitDx=0;exitDy=0;" edge="1" parent="e8lJ5DqBwAY-DkGDRdsz-154" source="e8lJ5DqBwAY-DkGDRdsz-167" target="e8lJ5DqBwAY-DkGDRdsz-167">
          <mxGeometry relative="1" as="geometry" />
        </mxCell>
      </root>
    </mxGraphModel>
  </diagram>
</mxfile>
